<svg width="30" height="30" viewBox="0 0 63 63" fill="none" xmlns="http://www.w3.org/2000/svg">
<path d="M31.4999 0C14.1312 0 0 14.1312 0 31.4999C0 48.8687 14.1312 62.9999 31.4999 62.9999C48.8687 62.9999 62.9999 48.8687 62.9999 31.4999C62.9999 14.1312 48.8688 0 31.4999 0ZM47.9347 32.8695H32.8695V47.9347C32.8695 48.6907 32.2559 49.3043 31.4999 49.3043C30.7439 49.3043 30.1303 48.6907 30.1303 47.9347V32.8695H15.0652C14.3092 32.8695 13.6956 32.2559 13.6956 31.4999C13.6956 30.7439 14.3092 30.1303 15.0652 30.1303H30.1303V15.0652C30.1303 14.3092 30.7439 13.6956 31.4999 13.6956C32.2559 13.6956 32.8695 14.3092 32.8695 15.0652V30.1303H47.9347C48.6907 30.1303 49.3043 30.7439 49.3043 31.4999C49.3043 32.2559 48.6907 32.8695 47.9347 32.8695Z" fill="black"/>
</svg>
