<svg width="41" height="30" viewBox="0 0 53 42" fill="none" xmlns="http://www.w3.org/2000/svg">
<path d="M49.6875 6.99997H3.3125C1.48617 6.99997 0 8.17769 0 9.62497V32.3749C0 33.8222 1.48617 34.9999 3.3125 34.9999H49.6875C51.5138 34.9999 53 33.8222 53 32.3749V9.62497C53 8.17777 51.5138 6.99997 49.6875 6.99997ZM50.7917 32.375C50.7917 32.858 50.297 33.25 49.6875 33.25H3.3125C2.703 33.25 2.2083 32.858 2.2083 32.375V9.62497C2.2083 9.14197 2.703 8.74994 3.3125 8.74994H49.6875C50.297 8.74994 50.7917 9.14197 50.7917 9.62497V32.375Z" fill="white"/>
<path d="M52.2337 7.95022C51.8759 7.55819 51.1825 7.47075 50.6922 7.75425L28.4478 20.4977C27.2818 21.168 25.7161 21.1697 24.5478 20.496L2.31214 7.75425C1.81744 7.47075 1.12627 7.55828 0.770689 7.95022C0.415113 8.34225 0.525564 8.88997 1.01799 9.17347L23.2515 21.9135C24.2232 22.4735 25.3604 22.7535 26.4999 22.7535C27.6372 22.7535 28.7745 22.4735 29.744 21.9135L51.9863 9.17175C52.4788 8.88997 52.5914 8.34225 52.2337 7.95022Z" fill="white"/>
<path d="M24.4396 20.4855C24.0797 20.0953 23.3929 20.006 22.896 20.2912L1.04891 32.858C0.556488 33.1433 0.446037 33.6893 0.803787 34.0813C1.02024 34.3175 1.35584 34.4418 1.69816 34.4418C1.92124 34.4418 2.14866 34.3876 2.34741 34.2755L24.1945 21.7087C24.6869 21.4235 24.7974 20.8775 24.4396 20.4855Z" fill="white"/>
<path d="M51.951 32.858L30.1061 20.2913C29.6071 20.0061 28.9203 20.0935 28.5625 20.4855C28.2048 20.8775 28.3152 21.4236 28.8076 21.7088L50.6524 34.2755C50.8467 34.3875 51.0743 34.4418 51.2995 34.4418C51.6418 34.4418 51.9797 34.3175 52.1961 34.0813C52.5539 33.6893 52.4435 33.1433 51.951 32.858Z" fill="white"/>
</svg>
