<svg width="41" height="30" viewBox="0 0 53 46" fill="none" xmlns="http://www.w3.org/2000/svg">
<g clip-path="url(#clip0)">
<path d="M26.5 23.3594C27.6434 23.3594 28.5703 22.5549 28.5703 21.5625C28.5703 20.5701 27.6434 19.7656 26.5 19.7656C25.3566 19.7656 24.4297 20.5701 24.4297 21.5625C24.4297 22.5549 25.3566 23.3594 26.5 23.3594Z" fill="white"/>
<path d="M18.0117 31.6229H34.9883C38.413 31.6229 41.1992 29.2047 41.1992 26.2323V16.5292C41.1992 13.5568 38.413 11.1386 34.9883 11.1386H34.5717V6.86353C34.5717 3.07895 30.9496 7.62939e-06 26.4975 7.62939e-06C22.0454 7.62939e-06 18.4233 3.07895 18.4233 6.86353V11.1386H18.0117C14.587 11.1386 11.8008 13.5568 11.8008 16.5292V26.2323C11.8008 29.2047 14.587 31.6229 18.0117 31.6229ZM22.5639 6.86353C22.5639 5.06055 24.3286 3.59376 26.4975 3.59376C28.6665 3.59376 30.4311 5.06055 30.4311 6.86353V11.1386H22.5639V6.86353ZM15.9414 16.5292C15.9414 15.5384 16.8701 14.7323 18.0117 14.7323H34.9883C36.1299 14.7323 37.0586 15.5384 37.0586 16.5292V26.2323C37.0586 27.2231 36.1299 28.0292 34.9883 28.0292H18.0117C16.8701 28.0292 15.9414 27.2231 15.9414 26.2323V16.5292Z" fill="white"/>
<path d="M22.3594 38.8125C23.5028 38.8125 24.4297 38.008 24.4297 37.0156C24.4297 36.0232 23.5028 35.2188 22.3594 35.2188C21.216 35.2188 20.2891 36.0232 20.2891 37.0156C20.2891 38.008 21.216 38.8125 22.3594 38.8125Z" fill="white"/>
<path d="M14.0781 38.8125C15.2215 38.8125 16.1484 38.008 16.1484 37.0156C16.1484 36.0232 15.2215 35.2188 14.0781 35.2188C12.9347 35.2188 12.0078 36.0232 12.0078 37.0156C12.0078 38.008 12.9347 38.8125 14.0781 38.8125Z" fill="white"/>
<path d="M46.7875 28.2578C45.6798 28.0105 44.5515 28.5889 44.2665 29.55C43.9815 30.511 44.6482 31.4907 45.7554 31.738C47.5829 32.1464 48.8594 33.5777 48.8594 35.2188V38.8125C48.8594 40.7941 47.0019 42.4063 44.7188 42.4063H8.28125C5.99811 42.4063 4.14062 40.7941 4.14062 38.8125V35.2188C4.14062 33.6358 5.36045 32.2181 7.10707 31.7711C8.20382 31.4903 8.83071 30.4912 8.50722 29.5394C8.18384 28.5875 7.03213 28.0435 5.9359 28.3241C4.25594 28.7541 2.74523 29.6605 1.68192 30.8763C0.581654 32.1343 0 33.636 0 35.2188V38.8125C0 42.7757 3.71497 46 8.28125 46H44.7188C49.285 46 53 42.7757 53 38.8125V35.2188C53 31.9374 50.4453 29.0749 46.7875 28.2578Z" fill="white"/>
<path d="M30.6406 38.8125C31.784 38.8125 32.7109 38.008 32.7109 37.0156C32.7109 36.0232 31.784 35.2188 30.6406 35.2188C29.4972 35.2188 28.5703 36.0232 28.5703 37.0156C28.5703 38.008 29.4972 38.8125 30.6406 38.8125Z" fill="white"/>
<path d="M38.9219 38.8125C40.0653 38.8125 40.9922 38.008 40.9922 37.0156C40.9922 36.0232 40.0653 35.2188 38.9219 35.2188C37.7785 35.2188 36.8516 36.0232 36.8516 37.0156C36.8516 38.008 37.7785 38.8125 38.9219 38.8125Z" fill="white"/>
</g>
<defs>
<clipPath id="clip0">
<rect width="53" height="46" fill="white"/>
</clipPath>
</defs>
</svg>
