<svg width="20" height="15" viewBox="0 0 35 33" fill="none" xmlns="http://www.w3.org/2000/svg">
<path d="M12.3984 0C5.56325 0 0.00262451 5.24287 0.00262451 11.6875C0.00262451 18.1321 5.56325 23.375 12.3984 23.375C19.2336 23.375 24.7942 18.1321 24.7942 11.6875C24.7942 5.24287 19.2337 0 12.3984 0ZM12.3984 22C6.36675 22 1.46093 17.3745 1.46093 11.6875C1.46093 6.00046 6.36675 1.37498 12.3984 1.37498C18.4301 1.37498 23.3359 6.00046 23.3359 11.6875C23.3359 17.3745 18.4301 22 12.3984 22Z" fill="black"/>
<path d="M34.7862 31.8271L21.161 18.9804C20.8766 18.7123 20.4143 18.7123 20.1299 18.9804C19.8455 19.2485 19.8455 19.6844 20.1299 19.9525L33.7551 32.7991C33.898 32.9325 34.0847 32.9999 34.2713 32.9999C34.458 32.9999 34.6447 32.9326 34.7862 32.7991C35.0705 32.531 35.0705 32.0952 34.7862 31.8271Z" fill="black"/>
</svg>
